<svg xmlns="http://www.w3.org/2000/svg" xmlns:xlink="http://www.w3.org/1999/xlink" width="500" zoomAndPan="magnify" viewBox="0 0 375 374.999991" height="500" preserveAspectRatio="xMidYMid meet" version="1.0"><defs><clipPath id="742880daea"><path d="M 153 158.230469 L 222.554688 158.230469 L 222.554688 202 L 153 202 Z M 153 158.230469 " clip-rule="nonzero"/></clipPath><clipPath id="bbff0a520e"><path d="M 174 205 L 187 205 L 187 216.730469 L 174 216.730469 Z M 174 205 " clip-rule="nonzero"/></clipPath><clipPath id="55d4357e1a"><path d="M 199 205 L 211 205 L 211 216.730469 L 199 216.730469 Z M 199 205 " clip-rule="nonzero"/></clipPath></defs><g clip-path="url(#742880daea)"><path fill="#3c3c3c" d="M 220.835938 167.808594 C 219.554688 166.167969 217.640625 165.230469 215.554688 165.230469 L 178.84375 165.230469 C 177.5625 165.230469 176.527344 166.257812 176.527344 167.535156 C 176.527344 168.808594 177.5625 169.835938 178.84375 169.835938 L 215.554688 169.835938 C 216.1875 169.835938 216.789062 170.128906 217.175781 170.621094 C 217.5625 171.125 217.703125 171.757812 217.546875 172.371094 L 211.847656 194.359375 C 211.417969 196.03125 209.902344 197.199219 208.171875 197.199219 L 177.378906 197.199219 C 175.105469 197.199219 173.097656 195.601562 172.621094 193.390625 L 172.125 191.148438 L 201.410156 191.148438 C 202.691406 191.148438 203.726562 190.121094 203.726562 188.84375 C 203.726562 187.570312 202.691406 186.542969 201.410156 186.542969 L 171.136719 186.542969 L 169.886719 180.738281 L 204.15625 180.738281 C 205.4375 180.738281 206.472656 179.710938 206.472656 178.433594 C 206.472656 177.160156 205.4375 176.132812 204.15625 176.132812 L 168.882812 176.132812 L 168.15625 172.769531 C 167.261719 168.667969 164.929688 165.015625 161.546875 162.480469 L 156.929688 159.011719 C 155.910156 158.246094 154.457031 158.445312 153.6875 159.457031 C 152.914062 160.46875 153.113281 161.914062 154.132812 162.679688 L 158.753906 166.152344 C 161.238281 168.023438 162.96875 170.710938 163.617188 173.738281 L 168.082031 194.359375 C 169.023438 198.671875 172.914062 201.804688 177.363281 201.804688 L 208.140625 201.804688 C 211.988281 201.804688 215.339844 199.226562 216.3125 195.507812 L 222.011719 173.523438 C 222.535156 171.542969 222.101562 169.453125 220.835938 167.808594 Z M 220.835938 167.808594 " fill-opacity="1" fill-rule="nonzero"/></g><g clip-path="url(#bbff0a520e)"><path fill="#3c3c3c" d="M 186.535156 210.832031 C 186.535156 211.214844 186.5 211.59375 186.421875 211.972656 C 186.347656 212.347656 186.238281 212.710938 186.089844 213.066406 C 185.941406 213.417969 185.761719 213.753906 185.546875 214.074219 C 185.332031 214.394531 185.089844 214.6875 184.816406 214.957031 C 184.542969 215.230469 184.246094 215.472656 183.925781 215.683594 C 183.605469 215.898438 183.269531 216.078125 182.914062 216.222656 C 182.558594 216.371094 182.191406 216.480469 181.8125 216.554688 C 181.433594 216.628906 181.050781 216.667969 180.667969 216.667969 C 180.28125 216.667969 179.898438 216.628906 179.523438 216.554688 C 179.144531 216.480469 178.777344 216.371094 178.421875 216.222656 C 178.066406 216.078125 177.726562 215.898438 177.40625 215.683594 C 177.085938 215.472656 176.789062 215.230469 176.515625 214.957031 C 176.246094 214.6875 176 214.394531 175.789062 214.074219 C 175.574219 213.753906 175.390625 213.417969 175.246094 213.066406 C 175.097656 212.710938 174.984375 212.347656 174.910156 211.972656 C 174.835938 211.59375 174.796875 211.214844 174.796875 210.832031 C 174.796875 210.449219 174.835938 210.070312 174.910156 209.695312 C 174.984375 209.320312 175.097656 208.953125 175.246094 208.601562 C 175.390625 208.246094 175.574219 207.910156 175.789062 207.589844 C 176 207.273438 176.246094 206.976562 176.515625 206.707031 C 176.789062 206.4375 177.085938 206.195312 177.40625 205.980469 C 177.726562 205.769531 178.066406 205.589844 178.421875 205.441406 C 178.777344 205.296875 179.144531 205.183594 179.523438 205.109375 C 179.898438 205.035156 180.28125 205 180.667969 205 C 181.050781 205 181.433594 205.035156 181.8125 205.109375 C 182.191406 205.183594 182.558594 205.296875 182.914062 205.441406 C 183.269531 205.589844 183.605469 205.769531 183.925781 205.980469 C 184.246094 206.195312 184.542969 206.4375 184.816406 206.707031 C 185.089844 206.976562 185.332031 207.273438 185.546875 207.589844 C 185.761719 207.910156 185.941406 208.246094 186.089844 208.601562 C 186.238281 208.953125 186.347656 209.320312 186.421875 209.695312 C 186.5 210.070312 186.535156 210.449219 186.535156 210.832031 Z M 186.535156 210.832031 " fill-opacity="1" fill-rule="nonzero"/></g><g clip-path="url(#55d4357e1a)"><path fill="#3c3c3c" d="M 210.9375 210.832031 C 210.9375 211.214844 210.898438 211.59375 210.824219 211.972656 C 210.75 212.347656 210.636719 212.710938 210.492188 213.066406 C 210.34375 213.417969 210.164062 213.753906 209.949219 214.074219 C 209.734375 214.394531 209.492188 214.6875 209.21875 214.957031 C 208.945312 215.230469 208.648438 215.472656 208.328125 215.683594 C 208.007812 215.898438 207.671875 216.078125 207.3125 216.222656 C 206.957031 216.371094 206.589844 216.480469 206.214844 216.554688 C 205.835938 216.628906 205.453125 216.667969 205.070312 216.667969 C 204.683594 216.667969 204.300781 216.628906 203.921875 216.554688 C 203.546875 216.480469 203.179688 216.371094 202.824219 216.222656 C 202.464844 216.078125 202.128906 215.898438 201.808594 215.683594 C 201.488281 215.472656 201.191406 215.230469 200.917969 214.957031 C 200.644531 214.6875 200.402344 214.394531 200.1875 214.074219 C 199.976562 213.753906 199.792969 213.417969 199.648438 213.066406 C 199.5 212.710938 199.386719 212.347656 199.3125 211.972656 C 199.238281 211.59375 199.199219 211.214844 199.199219 210.832031 C 199.199219 210.449219 199.238281 210.070312 199.3125 209.695312 C 199.386719 209.320312 199.5 208.953125 199.648438 208.601562 C 199.792969 208.246094 199.976562 207.910156 200.1875 207.589844 C 200.402344 207.273438 200.644531 206.976562 200.917969 206.707031 C 201.191406 206.4375 201.488281 206.195312 201.808594 205.980469 C 202.128906 205.769531 202.464844 205.589844 202.824219 205.441406 C 203.179688 205.296875 203.546875 205.183594 203.921875 205.109375 C 204.300781 205.035156 204.683594 205 205.070312 205 C 205.453125 205 205.835938 205.035156 206.214844 205.109375 C 206.589844 205.183594 206.957031 205.296875 207.3125 205.441406 C 207.671875 205.589844 208.007812 205.769531 208.328125 205.980469 C 208.648438 206.195312 208.945312 206.4375 209.21875 206.707031 C 209.492188 206.976562 209.734375 207.273438 209.949219 207.589844 C 210.164062 207.910156 210.34375 208.246094 210.492188 208.601562 C 210.636719 208.953125 210.75 209.320312 210.824219 209.695312 C 210.898438 210.070312 210.9375 210.449219 210.9375 210.832031 Z M 210.9375 210.832031 " fill-opacity="1" fill-rule="nonzero"/></g></svg>