<svg xmlns="http://www.w3.org/2000/svg" xmlns:xlink="http://www.w3.org/1999/xlink" width="500" zoomAndPan="magnify" viewBox="0 0 375 374.999991" height="500" preserveAspectRatio="xMidYMid meet" version="1.0"><defs><g/><clipPath id="7329ea92cc"><path d="M 114.242188 114.496094 L 259.742188 114.496094 L 259.742188 259.996094 L 114.242188 259.996094 Z M 114.242188 114.496094 " clip-rule="nonzero"/></clipPath></defs><g clip-path="url(#7329ea92cc)"><path fill="#3c3c3c" d="M 207.433594 117.761719 C 201.703125 115.847656 195.820312 114.777344 189.785156 114.542969 C 183.75 114.3125 177.804688 114.929688 171.945312 116.398438 C 169.851562 116.84375 167.78125 117.378906 165.734375 118.007812 C 163.691406 118.632812 161.675781 119.351562 159.691406 120.15625 C 157.710938 120.964844 155.765625 121.855469 153.863281 122.835938 C 151.960938 123.816406 150.101562 124.875 148.292969 126.019531 C 146.484375 127.160156 144.726562 128.382812 143.027344 129.683594 C 141.324219 130.980469 139.683594 132.351562 138.105469 133.796875 C 136.523438 135.242188 135.011719 136.753906 133.566406 138.332031 C 132.121094 139.910156 130.746094 141.546875 129.445312 143.25 C 128.144531 144.949219 126.921875 146.703125 125.777344 148.511719 C 124.632812 150.320312 123.570312 152.175781 122.589844 154.078125 C 121.609375 155.980469 120.714844 157.921875 119.90625 159.90625 C 119.097656 161.886719 118.378906 163.902344 117.75 165.945312 C 117.117188 167.992188 116.582031 170.0625 116.132812 172.15625 C 115.6875 174.25 115.335938 176.359375 115.074219 178.480469 C 114.816406 180.605469 114.652344 182.738281 114.582031 184.878906 C 114.507812 187.019531 114.535156 189.15625 114.652344 191.292969 C 114.773438 193.429688 114.984375 195.558594 115.292969 197.675781 C 115.601562 199.792969 116 201.894531 116.496094 203.976562 C 116.988281 206.0625 117.574219 208.117188 118.25 210.148438 C 118.925781 212.179688 119.691406 214.175781 120.542969 216.140625 C 121.394531 218.101562 122.332031 220.023438 123.355469 221.90625 C 124.378906 223.785156 125.484375 225.617188 126.671875 227.398438 C 127.855469 229.179688 129.117188 230.90625 130.457031 232.578125 C 131.796875 234.246094 133.207031 235.855469 134.6875 237.398438 C 136.167969 238.945312 137.714844 240.421875 139.328125 241.828125 C 140.9375 243.238281 142.609375 244.570312 144.339844 245.832031 C 146.070312 247.09375 147.851562 248.273438 149.6875 249.375 C 151.523438 250.476562 153.402344 251.496094 155.328125 252.429688 C 157.253906 253.367188 159.21875 254.214844 161.21875 254.976562 C 163.21875 255.738281 165.25 256.410156 167.308594 256.992188 C 169.367188 257.574219 171.449219 258.0625 173.554688 258.457031 C 175.65625 258.855469 177.773438 259.160156 179.902344 259.367188 L 184.328125 259.800781 L 184.5 224.398438 C 184.621094 221.410156 185.558594 181.273438 146.035156 174.410156 L 141.78125 173.675781 L 141.308594 177.96875 C 139.675781 192.820312 142.65625 204.898438 150.15625 213.820312 C 158.863281 224.199219 171.121094 227.203125 176.363281 228.042969 L 176.253906 250.707031 C 174.425781 250.398438 172.613281 250.011719 170.816406 249.546875 C 169.019531 249.082031 167.246094 248.539062 165.496094 247.917969 C 163.746094 247.296875 162.027344 246.605469 160.335938 245.835938 C 158.648438 245.070312 156.992188 244.230469 155.375 243.316406 C 153.761719 242.40625 152.183594 241.425781 150.652344 240.378906 C 149.121094 239.332031 147.636719 238.21875 146.199219 237.042969 C 144.765625 235.867188 143.382812 234.632812 142.054688 233.335938 C 140.722656 232.039062 139.453125 230.691406 138.242188 229.285156 C 137.03125 227.878906 135.878906 226.421875 134.792969 224.917969 C 133.707031 223.414062 132.6875 221.863281 131.738281 220.269531 C 130.785156 218.675781 129.902344 217.046875 129.089844 215.375 C 128.28125 213.707031 127.542969 212.003906 126.878906 210.273438 C 126.214844 208.539062 125.628906 206.78125 125.117188 204.996094 C 124.605469 203.210938 124.171875 201.410156 123.816406 199.585938 C 123.460938 197.765625 123.183594 195.929688 122.988281 194.085938 C 122.789062 192.242188 122.675781 190.390625 122.636719 188.535156 C 122.601562 186.679688 122.644531 184.824219 122.769531 182.972656 C 122.890625 181.121094 123.09375 179.277344 123.378906 177.441406 C 123.660156 175.609375 124.023438 173.789062 124.464844 171.988281 C 124.90625 170.183594 125.421875 168.402344 126.019531 166.644531 C 126.613281 164.886719 127.28125 163.15625 128.027344 161.457031 C 128.769531 159.757812 129.585938 158.09375 130.476562 156.460938 C 131.363281 154.832031 132.320312 153.246094 133.347656 151.699219 C 134.375 150.152344 135.464844 148.652344 136.621094 147.199219 C 137.777344 145.746094 138.992188 144.347656 140.269531 143 C 141.546875 141.652344 142.878906 140.363281 144.265625 139.132812 C 145.65625 137.898438 147.09375 136.730469 148.582031 135.621094 C 150.074219 134.515625 151.609375 133.472656 153.1875 132.5 C 154.765625 131.527344 156.386719 130.621094 158.042969 129.785156 C 159.703125 128.953125 161.394531 128.191406 163.117188 127.503906 C 164.839844 126.816406 166.589844 126.203125 168.367188 125.667969 C 170.144531 125.128906 171.941406 124.671875 173.757812 124.289062 L 174.078125 124.207031 C 174.222656 124.167969 189.078125 119.921875 204.894531 125.449219 L 205.171875 125.53125 C 226.898438 131.414062 251.191406 158.09375 251.316406 186.976562 C 251.453125 218.863281 229.140625 245.558594 198.714844 250.839844 L 198.714844 238.402344 L 198.871094 227.972656 C 201.0625 227.617188 203.210938 227.085938 205.316406 226.375 C 207.421875 225.664062 209.453125 224.78125 211.410156 223.730469 C 213.367188 222.679688 215.222656 221.476562 216.976562 220.113281 C 218.734375 218.753906 220.363281 217.257812 221.871094 215.625 C 229.988281 206.644531 233.679688 193.898438 232.828125 177.820312 L 232.585938 173.144531 L 228 174.074219 C 190.359375 181.535156 190.816406 223.859375 190.824219 224.175781 L 190.613281 238.359375 L 190.613281 259.996094 L 195.074219 259.546875 C 231.914062 255.777344 259.550781 224.578125 259.417969 186.960938 C 259.289062 154.003906 232.453125 124.617188 207.433594 117.761719 Z M 156.375 208.605469 C 151.085938 202.3125 148.628906 193.839844 149.03125 183.378906 C 172.085938 189.664062 175.832031 210.6875 176.355469 219.777344 C 171.683594 218.886719 162.707031 216.203125 156.375 208.605469 Z M 202.566406 205.183594 C 206.894531 194.011719 214.359375 186.652344 224.816406 183.253906 C 224.375 211.386719 206.625 218.113281 199.15625 219.703125 C 199.652344 214.714844 200.789062 209.875 202.566406 205.183594 Z M 205.960938 165.367188 C 205.960938 164.742188 205.929688 164.121094 205.867188 163.5 C 205.804688 162.878906 205.710938 162.265625 205.585938 161.652344 C 205.464844 161.042969 205.3125 160.4375 205.128906 159.84375 C 204.945312 159.246094 204.734375 158.660156 204.496094 158.085938 C 204.257812 157.507812 203.988281 156.945312 203.695312 156.398438 C 203.402344 155.847656 203.078125 155.3125 202.734375 154.796875 C 202.386719 154.277344 202.015625 153.777344 201.617188 153.296875 C 201.222656 152.816406 200.804688 152.355469 200.363281 151.914062 C 199.921875 151.472656 199.460938 151.054688 198.980469 150.660156 C 198.496094 150.261719 197.996094 149.894531 197.480469 149.546875 C 196.960938 149.199219 196.425781 148.878906 195.875 148.585938 C 195.328125 148.292969 194.765625 148.023438 194.1875 147.785156 C 193.613281 147.546875 193.027344 147.335938 192.429688 147.15625 C 191.835938 146.972656 191.230469 146.820312 190.617188 146.699219 C 190.007812 146.574219 189.390625 146.484375 188.773438 146.421875 C 188.152344 146.359375 187.53125 146.328125 186.90625 146.324219 L 186.816406 146.324219 C 186.191406 146.328125 185.566406 146.359375 184.945312 146.421875 C 184.324219 146.484375 183.703125 146.578125 183.089844 146.699219 C 182.476562 146.824219 181.871094 146.976562 181.273438 147.160156 C 180.675781 147.34375 180.089844 147.554688 179.511719 147.792969 C 178.933594 148.035156 178.371094 148.304688 177.820312 148.601562 C 177.269531 148.894531 176.734375 149.21875 176.214844 149.566406 C 175.695312 149.914062 175.191406 150.289062 174.710938 150.6875 C 174.226562 151.085938 173.765625 151.503906 173.324219 151.949219 C 172.882812 152.390625 172.464844 152.855469 172.070312 153.339844 C 171.671875 153.824219 171.300781 154.324219 170.957031 154.847656 C 170.609375 155.367188 170.289062 155.902344 169.996094 156.457031 C 169.703125 157.007812 169.4375 157.574219 169.199219 158.152344 C 168.960938 158.730469 168.75 159.320312 168.570312 159.917969 C 168.390625 160.515625 168.238281 161.125 168.117188 161.738281 C 167.996094 162.351562 167.90625 162.96875 167.847656 163.589844 C 167.789062 164.214844 167.757812 164.839844 167.757812 165.464844 C 167.761719 166.089844 167.792969 166.714844 167.855469 167.335938 C 167.917969 167.957031 168.011719 168.574219 168.132812 169.1875 C 168.257812 169.800781 168.410156 170.40625 168.59375 171.003906 C 168.777344 171.605469 168.988281 172.191406 169.230469 172.769531 C 169.46875 173.347656 169.738281 173.910156 170.035156 174.460938 C 170.328125 175.011719 170.652344 175.546875 171 176.066406 C 171.347656 176.585938 171.722656 177.085938 172.121094 177.570312 C 172.519531 178.050781 172.9375 178.515625 173.382812 178.957031 C 173.824219 179.398438 174.289062 179.816406 174.773438 180.210938 C 175.257812 180.605469 175.761719 180.976562 176.28125 181.324219 C 176.800781 181.671875 177.339844 181.992188 177.890625 182.285156 C 178.441406 182.578125 179.007812 182.84375 179.585938 183.082031 C 180.164062 183.320312 180.753906 183.53125 181.351562 183.710938 C 181.953125 183.890625 182.558594 184.039062 183.171875 184.160156 C 183.785156 184.28125 184.402344 184.371094 185.027344 184.433594 C 185.648438 184.492188 186.273438 184.523438 186.898438 184.519531 L 186.988281 184.519531 C 187.613281 184.515625 188.234375 184.484375 188.855469 184.417969 C 189.476562 184.351562 190.09375 184.257812 190.703125 184.132812 C 191.316406 184.007812 191.917969 183.851562 192.515625 183.667969 C 193.113281 183.484375 193.699219 183.269531 194.273438 183.027344 C 194.847656 182.785156 195.410156 182.515625 195.960938 182.21875 C 196.507812 181.921875 197.042969 181.597656 197.558594 181.25 C 198.074219 180.902344 198.574219 180.527344 199.054688 180.128906 C 199.535156 179.730469 199.996094 179.308594 200.433594 178.867188 C 200.875 178.421875 201.292969 177.957031 201.683594 177.472656 C 202.078125 176.988281 202.449219 176.488281 202.792969 175.96875 C 203.136719 175.445312 203.453125 174.910156 203.746094 174.359375 C 204.039062 173.808594 204.304688 173.242188 204.539062 172.664062 C 204.777344 172.085938 204.984375 171.5 205.164062 170.902344 C 205.339844 170.304688 205.492188 169.699219 205.609375 169.085938 C 205.730469 168.472656 205.820312 167.855469 205.878906 167.234375 C 205.9375 166.613281 205.964844 165.988281 205.960938 165.367188 Z M 194.714844 173.191406 C 193.691406 174.234375 192.507812 175.039062 191.160156 175.605469 C 189.8125 176.171875 188.40625 176.453125 186.945312 176.457031 L 186.898438 176.457031 C 186.175781 176.457031 185.457031 176.386719 184.75 176.246094 C 184.039062 176.105469 183.351562 175.894531 182.683594 175.617188 C 182.011719 175.339844 181.378906 175.003906 180.777344 174.601562 C 180.175781 174.199219 179.617188 173.742188 179.105469 173.230469 C 178.59375 172.71875 178.140625 172.160156 177.738281 171.558594 C 177.335938 170.957031 176.996094 170.324219 176.71875 169.65625 C 176.441406 168.988281 176.234375 168.296875 176.09375 167.589844 C 175.949219 166.878906 175.878906 166.164062 175.878906 165.4375 C 175.878906 164.714844 175.949219 164 176.09375 163.289062 C 176.234375 162.582031 176.441406 161.890625 176.71875 161.222656 C 176.996094 160.554688 177.335938 159.917969 177.738281 159.316406 C 178.140625 158.714844 178.59375 158.160156 179.105469 157.648438 C 179.617188 157.136719 180.175781 156.679688 180.777344 156.277344 C 181.378906 155.875 182.011719 155.535156 182.683594 155.261719 C 183.351562 154.984375 184.039062 154.773438 184.75 154.632812 C 185.457031 154.492188 186.175781 154.421875 186.898438 154.421875 L 186.945312 154.421875 C 188.035156 154.417969 189.101562 154.574219 190.140625 154.890625 C 191.183594 155.203125 192.160156 155.660156 193.0625 156.265625 C 193.96875 156.867188 194.769531 157.589844 195.460938 158.429688 C 196.152344 159.269531 196.707031 160.191406 197.125 161.195312 C 197.542969 162.203125 197.808594 163.246094 197.914062 164.328125 C 198.023438 165.410156 197.972656 166.484375 197.761719 167.554688 C 197.550781 168.621094 197.191406 169.636719 196.679688 170.597656 C 196.167969 171.554688 195.527344 172.421875 194.757812 173.191406 Z M 194.714844 173.191406 " fill-opacity="1" fill-rule="nonzero"/></g><path stroke-linecap="round" transform="matrix(0.748868, 0, 0, 0.75, 271.065251, 184.999572)" fill="none" stroke-linejoin="miter" d="M 1.498595 1.500571 L 29.556584 1.500571 " stroke="#000000" stroke-width="3" stroke-opacity="1" stroke-miterlimit="4"/><path stroke-linecap="round" transform="matrix(0.748868, 0, 0, 0.75, 78.927604, 182.749572)" fill="none" stroke-linejoin="miter" d="M 1.499834 1.500571 L 29.557823 1.500571 " stroke="#000000" stroke-width="3" stroke-opacity="1" stroke-miterlimit="4"/><path stroke-linecap="round" transform="matrix(0.748868, 0, 0, 0.75, 271.065251, 206.450919)" fill="none" stroke-linejoin="miter" d="M 1.498595 1.497733 L 29.556584 1.497733 " stroke="#000000" stroke-width="3" stroke-opacity="1" stroke-miterlimit="4"/><path stroke-linecap="round" transform="matrix(0.748868, 0, 0, 0.75, 78.927604, 204.200919)" fill="none" stroke-linejoin="miter" d="M 1.499834 1.497733 L 29.557823 1.497733 " stroke="#000000" stroke-width="3" stroke-opacity="1" stroke-miterlimit="4"/><g fill="#000000" fill-opacity="1"><g transform="translate(99.760708, 146.915582)"><g><path d="M 6.109375 -12.8125 C 6.210938 -12.257812 6.140625 -11.453125 5.890625 -10.390625 C 5.640625 -9.335938 5.289062 -8.441406 4.84375 -7.703125 C 4.019531 -6.335938 3.019531 -5.304688 1.84375 -4.609375 C 0.675781 -3.910156 -0.546875 -3.566406 -1.828125 -3.578125 C -3.117188 -3.597656 -4.375 -3.976562 -5.59375 -4.71875 C -7.050781 -5.59375 -8.117188 -6.644531 -8.796875 -7.875 C -9.484375 -9.101562 -9.785156 -10.382812 -9.703125 -11.71875 C -9.628906 -13.0625 -9.226562 -14.335938 -8.5 -15.546875 C -8.050781 -16.296875 -7.539062 -16.957031 -6.96875 -17.53125 C -6.394531 -18.101562 -5.804688 -18.554688 -5.203125 -18.890625 L -3.6875 -17.0625 C -4.113281 -16.832031 -4.582031 -16.46875 -5.09375 -15.96875 C -5.601562 -15.476562 -5.992188 -15.007812 -6.265625 -14.5625 C -7.148438 -13.082031 -7.441406 -11.664062 -7.140625 -10.3125 C -6.847656 -8.957031 -5.96875 -7.835938 -4.5 -6.953125 C -3.613281 -6.421875 -2.710938 -6.148438 -1.796875 -6.140625 C -0.878906 -6.140625 -0.0195312 -6.382812 0.78125 -6.875 C 1.582031 -7.375 2.257812 -8.085938 2.8125 -9.015625 C 3.070312 -9.429688 3.273438 -9.851562 3.421875 -10.28125 C 3.566406 -10.707031 3.648438 -11.09375 3.671875 -11.4375 L 1.53125 -12.75 L 0.046875 -10.3125 L -1.96875 -11.515625 L 0.765625 -16.03125 Z M 6.109375 -12.8125 "/></g></g></g><g fill="#000000" fill-opacity="1"><g transform="translate(110.111328, 130.354287)"><g><path d="M -4.703125 -6.03125 C -5.710938 -6.988281 -6.40625 -8.125 -6.78125 -9.4375 C -7.15625 -10.75 -7.191406 -12.078125 -6.890625 -13.421875 C -6.585938 -14.773438 -5.953125 -15.960938 -4.984375 -16.984375 C -4.035156 -17.984375 -2.894531 -18.671875 -1.5625 -19.046875 C -0.226562 -19.429688 1.113281 -19.46875 2.46875 -19.15625 C 3.820312 -18.84375 4.992188 -18.21875 5.984375 -17.28125 C 7.003906 -16.3125 7.695312 -15.164062 8.0625 -13.84375 C 8.4375 -12.53125 8.460938 -11.195312 8.140625 -9.84375 C 7.828125 -8.5 7.195312 -7.328125 6.25 -6.328125 C 5.28125 -5.304688 4.132812 -4.597656 2.8125 -4.203125 C 1.5 -3.816406 0.175781 -3.78125 -1.15625 -4.09375 C -2.488281 -4.40625 -3.671875 -5.050781 -4.703125 -6.03125 Z M -2.984375 -7.84375 C -2.265625 -7.164062 -1.441406 -6.71875 -0.515625 -6.5 C 0.398438 -6.28125 1.3125 -6.296875 2.21875 -6.546875 C 3.125 -6.804688 3.910156 -7.289062 4.578125 -8 C 5.242188 -8.6875 5.675781 -9.476562 5.875 -10.375 C 6.070312 -11.28125 6.03125 -12.1875 5.75 -13.09375 C 5.476562 -14 4.984375 -14.789062 4.265625 -15.46875 C 3.554688 -16.144531 2.734375 -16.597656 1.796875 -16.828125 C 0.867188 -17.054688 -0.046875 -17.046875 -0.953125 -16.796875 C -1.859375 -16.554688 -2.640625 -16.085938 -3.296875 -15.390625 C -3.960938 -14.679688 -4.394531 -13.867188 -4.59375 -12.953125 C -4.789062 -12.046875 -4.75 -11.132812 -4.46875 -10.21875 C -4.1875 -9.3125 -3.691406 -8.519531 -2.984375 -7.84375 Z M -2.984375 -7.84375 "/></g></g></g><g fill="#000000" fill-opacity="1"><g transform="translate(125.398927, 115.098354)"><g><path d="M 8.515625 -5.890625 L 2.71875 -8.28125 L 2.515625 -8.140625 L 0.71875 -6.890625 L 3.71875 -2.5625 L 1.703125 -1.1875 L -6.90625 -13.65625 L -3.390625 -16.078125 C -1.992188 -17.035156 -0.632812 -17.453125 0.6875 -17.328125 C 2.007812 -17.203125 3.109375 -16.507812 3.984375 -15.25 C 4.515625 -14.488281 4.84375 -13.664062 4.96875 -12.78125 C 5.09375 -11.90625 4.925781 -11.046875 4.46875 -10.203125 L 10.84375 -7.484375 Z M -0.59375 -8.8125 L 1.1875 -10.046875 C 1.988281 -10.597656 2.414062 -11.21875 2.46875 -11.90625 C 2.519531 -12.601562 2.359375 -13.222656 1.984375 -13.765625 C 1.765625 -14.085938 1.472656 -14.363281 1.109375 -14.59375 C 0.742188 -14.820312 0.316406 -14.9375 -0.171875 -14.9375 C -0.671875 -14.945312 -1.191406 -14.765625 -1.734375 -14.390625 L -3.578125 -13.109375 Z M -0.59375 -8.8125 "/></g></g></g><g fill="#000000" fill-opacity="1"><g transform="translate(140.208818, 105.212716)"><g><path d="M -4.09375 -14.75 L -0.140625 -16.453125 C 1.609375 -17.203125 3.203125 -17.476562 4.640625 -17.28125 C 6.078125 -17.082031 7.289062 -16.550781 8.28125 -15.6875 C 9.269531 -14.832031 10.023438 -13.796875 10.546875 -12.578125 C 11.128906 -11.222656 11.328125 -9.894531 11.140625 -8.59375 C 10.953125 -7.300781 10.445312 -6.148438 9.625 -5.140625 C 8.8125 -4.128906 7.785156 -3.359375 6.546875 -2.828125 L 1.90625 -0.828125 Z M 5.21875 -4.796875 C 6.207031 -5.210938 7 -5.765625 7.59375 -6.453125 C 8.1875 -7.148438 8.539062 -7.953125 8.65625 -8.859375 C 8.78125 -9.773438 8.625 -10.738281 8.1875 -11.75 C 7.707031 -12.84375 7.078125 -13.65625 6.296875 -14.1875 C 5.523438 -14.71875 4.703125 -15 3.828125 -15.03125 C 2.960938 -15.0625 2.148438 -14.914062 1.390625 -14.59375 L -0.953125 -13.59375 L 3.21875 -3.9375 Z M 5.21875 -4.796875 "/></g></g></g><g fill="#000000" fill-opacity="1"><g transform="translate(158.354503, 97.713488)"><g><path d="M -0.3125 -7.640625 C -0.570312 -9.003906 -0.472656 -10.332031 -0.015625 -11.625 C 0.429688 -12.914062 1.171875 -14.019531 2.203125 -14.9375 C 3.234375 -15.851562 4.441406 -16.445312 5.828125 -16.71875 C 7.179688 -16.976562 8.507812 -16.875 9.8125 -16.40625 C 11.113281 -15.945312 12.222656 -15.195312 13.140625 -14.15625 C 14.066406 -13.113281 14.660156 -11.921875 14.921875 -10.578125 C 15.191406 -9.203125 15.09375 -7.867188 14.625 -6.578125 C 14.15625 -5.296875 13.398438 -4.195312 12.359375 -3.28125 C 11.316406 -2.363281 10.117188 -1.773438 8.765625 -1.515625 C 7.378906 -1.242188 6.035156 -1.332031 4.734375 -1.78125 C 3.441406 -2.238281 2.34375 -2.984375 1.4375 -4.015625 C 0.539062 -5.046875 -0.0390625 -6.253906 -0.3125 -7.640625 Z M 2.140625 -8.109375 C 2.328125 -7.140625 2.726562 -6.296875 3.34375 -5.578125 C 3.96875 -4.867188 4.722656 -4.351562 5.609375 -4.03125 C 6.503906 -3.707031 7.429688 -3.640625 8.390625 -3.828125 C 9.328125 -4.003906 10.132812 -4.398438 10.8125 -5.015625 C 11.5 -5.640625 11.992188 -6.398438 12.296875 -7.296875 C 12.597656 -8.203125 12.65625 -9.140625 12.46875 -10.109375 C 12.28125 -11.066406 11.875 -11.910156 11.25 -12.640625 C 10.625 -13.378906 9.867188 -13.90625 8.984375 -14.21875 C 8.109375 -14.539062 7.203125 -14.613281 6.265625 -14.4375 C 5.304688 -14.25 4.476562 -13.84375 3.78125 -13.21875 C 3.09375 -12.59375 2.597656 -11.820312 2.296875 -10.90625 C 2.003906 -10 1.953125 -9.066406 2.140625 -8.109375 Z M 2.140625 -8.109375 "/></g></g></g><g fill="#000000" fill-opacity="1"><g transform="translate(179.8138, 94.387401)"><g/></g></g><g fill="#000000" fill-opacity="1"><g transform="translate(190.498316, 94.150988)"><g><path d="M 16.28125 -13.078125 L 7.40625 1.734375 L 2.828125 -14.90625 L 5.6875 -14.515625 L 8.28125 -4.125 L 13.4375 -13.453125 Z M 16.28125 -13.078125 "/></g></g></g><g fill="#000000" fill-opacity="1"><g transform="translate(209.233973, 97.158292)"><g><path d="M 16.390625 -10.4375 L 15.640625 -8.234375 L 8.421875 -10.6875 L 7.109375 -6.859375 L 13.515625 -4.671875 L 12.765625 -2.46875 L 6.359375 -4.65625 L 5.03125 -0.75 L 12.515625 1.796875 L 11.765625 4 L 1.96875 0.671875 L 6.859375 -13.671875 Z M 16.390625 -10.4375 "/></g></g></g><g fill="#000000" fill-opacity="1"><g transform="translate(225.766715, 103.085947)"><g><path d="M 12.9375 5.859375 C 12.375 5.984375 11.5625 5.929688 10.5 5.703125 C 9.445312 5.472656 8.546875 5.144531 7.796875 4.71875 C 6.410156 3.914062 5.351562 2.929688 4.625 1.765625 C 3.90625 0.609375 3.539062 -0.609375 3.53125 -1.890625 C 3.53125 -3.179688 3.882812 -4.441406 4.59375 -5.671875 C 5.445312 -7.148438 6.484375 -8.242188 7.703125 -8.953125 C 8.921875 -9.660156 10.203125 -9.988281 11.546875 -9.9375 C 12.890625 -9.882812 14.164062 -9.503906 15.375 -8.796875 C 16.132812 -8.359375 16.804688 -7.859375 17.390625 -7.296875 C 17.972656 -6.734375 18.4375 -6.15625 18.78125 -5.5625 L 16.984375 -4 C 16.742188 -4.425781 16.375 -4.890625 15.875 -5.390625 C 15.375 -5.890625 14.898438 -6.269531 14.453125 -6.53125 C 12.953125 -7.394531 11.53125 -7.660156 10.1875 -7.328125 C 8.84375 -7.003906 7.738281 -6.097656 6.875 -4.609375 C 6.363281 -3.710938 6.109375 -2.8125 6.109375 -1.90625 C 6.117188 -1 6.378906 -0.148438 6.890625 0.640625 C 7.410156 1.429688 8.132812 2.097656 9.0625 2.640625 C 9.488281 2.878906 9.914062 3.070312 10.34375 3.21875 C 10.78125 3.375 11.175781 3.457031 11.53125 3.46875 L 12.78125 1.28125 L 10.296875 -0.15625 L 11.46875 -2.1875 L 16.046875 0.453125 Z M 12.9375 5.859375 "/></g></g></g><g fill="#000000" fill-opacity="1"><g transform="translate(242.503291, 113.205067)"><g><path d="M 11.453125 8.375 C 10.890625 8.382812 10.113281 8.164062 9.125 7.71875 C 8.144531 7.28125 7.332031 6.769531 6.6875 6.1875 C 5.5 5.132812 4.664062 3.960938 4.1875 2.671875 C 3.71875 1.390625 3.609375 0.117188 3.859375 -1.140625 C 4.109375 -2.398438 4.707031 -3.554688 5.65625 -4.609375 C 6.789062 -5.890625 8.023438 -6.75 9.359375 -7.1875 C 10.703125 -7.625 12.023438 -7.679688 13.328125 -7.359375 C 14.628906 -7.035156 15.804688 -6.410156 16.859375 -5.484375 C 17.503906 -4.898438 18.054688 -4.269531 18.515625 -3.59375 C 18.972656 -2.914062 19.304688 -2.257812 19.515625 -1.625 L 17.4375 -0.453125 C 17.289062 -0.921875 17.023438 -1.453125 16.640625 -2.046875 C 16.253906 -2.640625 15.867188 -3.109375 15.484375 -3.453125 C 14.191406 -4.609375 12.851562 -5.160156 11.46875 -5.109375 C 10.082031 -5.066406 8.816406 -4.40625 7.671875 -3.125 C 6.984375 -2.351562 6.550781 -1.519531 6.375 -0.625 C 6.195312 0.269531 6.28125 1.160156 6.625 2.046875 C 6.96875 2.929688 7.539062 3.726562 8.34375 4.4375 C 8.707031 4.757812 9.082031 5.035156 9.46875 5.265625 C 9.851562 5.492188 10.21875 5.648438 10.5625 5.734375 L 12.234375 3.859375 L 10.109375 1.953125 L 11.671875 0.203125 L 15.609375 3.71875 Z M 11.453125 8.375 "/></g></g></g><g fill="#000000" fill-opacity="1"><g transform="translate(256.733072, 126.833815)"><g><path d="M 14.609375 -6.046875 L 2.84375 3.5 L 1.3125 1.609375 L 13.078125 -7.9375 Z M 14.609375 -6.046875 "/></g></g></g><g fill="#000000" fill-opacity="1"><g transform="translate(263.417012, 135.119733)"><g><path d="M 19.234375 2.75 L 17.21875 3.9375 L 13.34375 -2.625 L 9.859375 -0.5625 L 13.296875 5.28125 L 11.296875 6.453125 L 7.859375 0.609375 L 4.296875 2.703125 L 8.3125 9.515625 L 6.3125 10.703125 L 1.0625 1.796875 L 14.125 -5.90625 Z M 19.234375 2.75 "/></g></g></g><g fill="#000000" fill-opacity="1"><g transform="translate(100.845891, 257.067328)"><g><path d="M 9.921875 10.703125 L 8.25 8.890625 L 13.046875 4.4375 L 7.90625 -1.09375 L 3.109375 3.359375 L 1.4375 1.546875 L 12.703125 -8.90625 L 14.375 -7.09375 L 9.609375 -2.671875 L 14.75 2.859375 L 19.515625 -1.5625 L 21.1875 0.25 Z M 9.921875 10.703125 "/></g></g></g><g fill="#000000" fill-opacity="1"><g transform="translate(116.44408, 272.925461)"><g><path d="M 10.21875 2.921875 L 5.6875 -0.34375 L 2.390625 1.71875 L 0.40625 0.296875 L 15.265625 -8.703125 L 15.390625 -8.609375 L 11.546875 8.3125 L 9.25 6.671875 Z M 10.78125 0.71875 L 12.0625 -4.34375 L 7.625 -1.5625 Z M 10.78125 0.71875 "/></g></g></g><g fill="#000000" fill-opacity="1"><g transform="translate(133.166339, 284.255057)"><g><path d="M 12.421875 -11.109375 C 14.003906 -10.359375 15.050781 -9.375 15.5625 -8.15625 C 16.070312 -6.9375 15.992188 -5.628906 15.328125 -4.234375 C 14.953125 -3.441406 14.441406 -2.773438 13.796875 -2.234375 C 13.148438 -1.703125 12.367188 -1.382812 11.453125 -1.28125 C 10.546875 -1.175781 9.539062 -1.382812 8.4375 -1.90625 L 6.4375 -2.859375 L 4.140625 1.96875 L 1.90625 0.90625 L 8.5 -12.96875 Z M 9.453125 -4.03125 C 10.066406 -3.738281 10.617188 -3.632812 11.109375 -3.71875 C 11.597656 -3.800781 12.015625 -3.992188 12.359375 -4.296875 C 12.703125 -4.597656 12.953125 -4.921875 13.109375 -5.265625 C 13.390625 -5.847656 13.457031 -6.472656 13.3125 -7.140625 C 13.164062 -7.816406 12.648438 -8.367188 11.765625 -8.796875 L 9.71875 -9.765625 L 7.453125 -4.984375 Z M 9.453125 -4.03125 "/></g></g></g><g fill="#000000" fill-opacity="1"><g transform="translate(149.895393, 291.693773)"><g><path d="M 10.359375 -13.0625 C 12.046875 -12.59375 13.242188 -11.800781 13.953125 -10.6875 C 14.660156 -9.582031 14.8125 -8.285156 14.40625 -6.796875 C 14.164062 -5.953125 13.769531 -5.207031 13.21875 -4.5625 C 12.664062 -3.914062 11.945312 -3.460938 11.0625 -3.203125 C 10.1875 -2.941406 9.160156 -2.976562 7.984375 -3.3125 L 5.84375 -3.90625 L 4.40625 1.234375 L 2.03125 0.5625 L 6.171875 -14.234375 Z M 8.625 -5.59375 C 9.28125 -5.40625 9.84375 -5.394531 10.3125 -5.5625 C 10.78125 -5.726562 11.15625 -5.988281 11.4375 -6.34375 C 11.71875 -6.695312 11.910156 -7.050781 12.015625 -7.40625 C 12.179688 -8.03125 12.140625 -8.664062 11.890625 -9.3125 C 11.640625 -9.957031 11.046875 -10.410156 10.109375 -10.671875 L 7.90625 -11.28125 L 6.484375 -6.1875 Z M 8.625 -5.59375 "/></g></g></g><g fill="#000000" fill-opacity="1"><g transform="translate(167.680328, 296.243877)"><g><path d="M 15.703125 -13.984375 L 9.03125 -4.1875 L 8.578125 0.78125 L 6.125 0.5625 L 6.578125 -4.40625 L 1.890625 -15.25 L 4.890625 -14.96875 L 8.15625 -7.0625 L 12.703125 -14.25 Z M 15.703125 -13.984375 "/></g></g></g><g fill="#000000" fill-opacity="1"><g transform="translate(187.811466, 297.386374)"><g/></g></g><g fill="#000000" fill-opacity="1"><g transform="translate(199.82289, 296.506937)"><g><path d="M 8.1875 -17.3125 L 8.65625 -15 L 1.921875 -13.65625 L 2.765625 -9.40625 L 8.625 -10.578125 L 9.09375 -8.28125 L 3.234375 -7.109375 L 4.484375 -0.90625 L 2.0625 -0.421875 L -0.96875 -15.484375 Z M 8.1875 -17.3125 "/></g></g></g><g fill="#000000" fill-opacity="1"><g transform="translate(217.468233, 292.679991)"><g><path d="M -1.875 -7.515625 C -2.40625 -8.804688 -2.578125 -10.144531 -2.390625 -11.53125 C -2.203125 -12.914062 -1.691406 -14.171875 -0.859375 -15.296875 C -0.0234375 -16.421875 1.046875 -17.253906 2.359375 -17.796875 C 3.660156 -18.328125 5.003906 -18.492188 6.390625 -18.296875 C 7.773438 -18.097656 9.03125 -17.578125 10.15625 -16.734375 C 11.289062 -15.890625 12.125 -14.828125 12.65625 -13.546875 C 13.195312 -12.234375 13.367188 -10.890625 13.171875 -9.515625 C 12.984375 -8.140625 12.460938 -6.890625 11.609375 -5.765625 C 10.753906 -4.648438 9.675781 -3.828125 8.375 -3.296875 C 7.0625 -2.753906 5.71875 -2.570312 4.34375 -2.75 C 2.96875 -2.9375 1.722656 -3.441406 0.609375 -4.265625 C -0.492188 -5.097656 -1.320312 -6.179688 -1.875 -7.515625 Z M 0.46875 -8.484375 C 0.851562 -7.554688 1.425781 -6.800781 2.1875 -6.21875 C 2.945312 -5.644531 3.800781 -5.285156 4.75 -5.140625 C 5.695312 -4.992188 6.628906 -5.113281 7.546875 -5.5 C 8.441406 -5.863281 9.164062 -6.425781 9.71875 -7.1875 C 10.269531 -7.945312 10.601562 -8.800781 10.71875 -9.75 C 10.832031 -10.707031 10.695312 -11.648438 10.3125 -12.578125 C 9.9375 -13.492188 9.363281 -14.25 8.59375 -14.84375 C 7.832031 -15.4375 6.984375 -15.804688 6.046875 -15.953125 C 5.109375 -16.097656 4.1875 -15.984375 3.28125 -15.609375 C 2.375 -15.234375 1.640625 -14.660156 1.078125 -13.890625 C 0.523438 -13.128906 0.191406 -12.265625 0.078125 -11.296875 C -0.0351562 -10.335938 0.09375 -9.398438 0.46875 -8.484375 Z M 0.46875 -8.484375 "/></g></g></g><g fill="#000000" fill-opacity="1"><g transform="translate(239.100766, 283.033179)"><g><path d="M -3.46875 -6.921875 C -4.28125 -8.078125 -4.742188 -9.34375 -4.859375 -10.71875 C -4.972656 -12.101562 -4.742188 -13.4375 -4.171875 -14.71875 C -3.609375 -16.007812 -2.75 -17.0625 -1.59375 -17.875 C -0.445312 -18.6875 0.820312 -19.144531 2.21875 -19.25 C 3.625 -19.351562 4.96875 -19.117188 6.25 -18.546875 C 7.53125 -17.984375 8.578125 -17.128906 9.390625 -15.984375 C 10.203125 -14.828125 10.660156 -13.550781 10.765625 -12.15625 C 10.878906 -10.769531 10.640625 -9.441406 10.046875 -8.171875 C 9.460938 -6.898438 8.597656 -5.859375 7.453125 -5.046875 C 6.296875 -4.234375 5.023438 -3.765625 3.640625 -3.640625 C 2.253906 -3.515625 0.929688 -3.738281 -0.328125 -4.3125 C -1.597656 -4.882812 -2.644531 -5.753906 -3.46875 -6.921875 Z M -1.390625 -8.375 C -0.816406 -7.5625 -0.0976562 -6.953125 0.765625 -6.546875 C 1.640625 -6.148438 2.550781 -5.984375 3.5 -6.046875 C 4.457031 -6.117188 5.34375 -6.441406 6.15625 -7.015625 C 6.945312 -7.566406 7.53125 -8.273438 7.90625 -9.140625 C 8.28125 -10.003906 8.414062 -10.910156 8.3125 -11.859375 C 8.21875 -12.816406 7.882812 -13.703125 7.3125 -14.515625 C 6.726562 -15.335938 6 -15.953125 5.125 -16.359375 C 4.25 -16.773438 3.335938 -16.945312 2.390625 -16.875 C 1.441406 -16.8125 0.570312 -16.5 -0.21875 -15.9375 C -1.019531 -15.375 -1.609375 -14.65625 -1.984375 -13.78125 C -2.367188 -12.914062 -2.507812 -12.003906 -2.40625 -11.046875 C -2.3125 -10.085938 -1.972656 -9.195312 -1.390625 -8.375 Z M -1.390625 -8.375 "/></g></g></g><g fill="#000000" fill-opacity="1"><g transform="translate(257.998798, 268.843516)"><g><path d="M -9.859375 -11.953125 L -6.90625 -15.15625 C -5.601562 -16.570312 -4.242188 -17.484375 -2.828125 -17.890625 C -1.410156 -18.304688 -0.0703125 -18.320312 1.1875 -17.9375 C 2.457031 -17.5625 3.59375 -16.914062 4.59375 -16 C 5.6875 -14.988281 6.410156 -13.835938 6.765625 -12.546875 C 7.128906 -11.265625 7.140625 -9.988281 6.796875 -8.71875 C 6.460938 -7.457031 5.828125 -6.320312 4.890625 -5.3125 L 1.4375 -1.546875 Z M 2.84375 -6.5625 C 3.59375 -7.375 4.097656 -8.226562 4.359375 -9.125 C 4.628906 -10.019531 4.628906 -10.910156 4.359375 -11.796875 C 4.097656 -12.679688 3.554688 -13.5 2.734375 -14.25 C 1.847656 -15.070312 0.9375 -15.566406 0 -15.734375 C -0.945312 -15.898438 -1.828125 -15.820312 -2.640625 -15.5 C -3.453125 -15.175781 -4.144531 -14.707031 -4.71875 -14.09375 L -6.453125 -12.1875 L 1.375 -4.953125 Z M 2.84375 -6.5625 "/></g></g></g></svg>